<?xml version="1.0" encoding="UTF-8"?>
<svg id="Livello_1" data-name="Livello 1" xmlns="http://www.w3.org/2000/svg" viewBox="0 0 96 96">
  <defs>
    <style>
      .cls-1 {
        fill: #e2e2e2;
      }

      .cls-2 {
        fill: #3d3d3d;
      }
    </style>
  </defs>
  <g>
    <g>
      <path class="cls-1" d="M0,17.72v58.43h96V22.51c0-2.64-2.14-4.78-4.78-4.78H0Z"/>
      <path class="cls-1" d="M26.77,10.54H4.88C2.19,10.54,0,12.73,0,15.42v2.3h35.41s-6.14-6.15-6.14-6.15c-.66-.66-1.56-1.04-2.5-1.04Z"/>
    </g>
    <rect class="cls-1" y="22.62" width="96" height="62.37" rx="4.01" ry="4.01"/>
  </g>
  <path class="cls-2" d="M37.58,69.53c-2.41-3.28-3.62-8-3.62-14.18,0-4.67.58-8.71,1.75-12.12,1.17-3.41,2.84-6.02,5.03-7.82,2.18-1.81,4.76-2.71,7.74-2.71,3.77,0,6.84,1.05,9.24,3.16,2.39,2.11,3.72,4.93,3.98,8.47h-4.86c-.3-2.3-1.21-4.13-2.74-5.51-1.53-1.37-3.4-2.06-5.62-2.06-2.98,0-5.38,1.44-7.2,4.32-1.83,2.88-2.83,6.79-3.02,11.72.83-1.58,2.14-2.84,3.93-3.79,1.79-.94,3.78-1.41,5.96-1.41,4.48,0,7.97,1.13,10.48,3.39,2.5,2.26,3.76,5.4,3.76,9.43,0,2.82-.58,5.29-1.75,7.4-1.17,2.11-2.84,3.74-5,4.89-2.17,1.15-4.7,1.72-7.6,1.72-4.56,0-8.04-1.64-10.45-4.92ZM41.73,67.89c1.64,1.73,3.87,2.6,6.69,2.6s5.11-.88,6.75-2.66c1.64-1.77,2.46-4.18,2.46-7.23,0-2.79-.81-4.99-2.43-6.61-1.62-1.62-3.82-2.43-6.61-2.43s-5.13.83-6.81,2.49c-1.68,1.66-2.51,3.9-2.51,6.72,0,3.01.82,5.39,2.46,7.12Z"/>
</svg>