<?xml version="1.0" encoding="UTF-8"?>
<svg id="Livello_1" data-name="Livello 1" xmlns="http://www.w3.org/2000/svg" viewBox="0 0 96 96">
  <defs>
    <style>
      .cls-1 {
        fill: #e2e2e2;
      }

      .cls-2 {
        fill: #3d3d3d;
      }
    </style>
  </defs>
  <g>
    <g>
      <path class="cls-1" d="M0,17.72v58.43h96V22.51c0-2.64-2.14-4.78-4.78-4.78H0Z"/>
      <path class="cls-1" d="M26.77,10.54H4.88C2.19,10.54,0,12.73,0,15.42v2.3h35.41s-6.14-6.15-6.14-6.15c-.66-.66-1.56-1.04-2.5-1.04Z"/>
    </g>
    <rect class="cls-1" y="22.62" width="96" height="62.37" rx="4.01" ry="4.01"/>
  </g>
  <path class="cls-2" d="M36.28,66.05c1.19-2.17,2.63-3.98,4.32-5.45,1.69-1.47,3.92-3.12,6.67-4.97,2.22-1.51,3.98-2.79,5.28-3.84,1.3-1.05,2.38-2.27,3.25-3.64.87-1.37,1.3-2.93,1.3-4.66,0-2.18-.73-3.89-2.2-5.11-1.47-1.22-3.52-1.84-6.16-1.84s-4.89.9-6.41,2.68c-1.53,1.79-2.29,4.28-2.29,7.48h-4.8c0-4.41,1.19-7.84,3.56-10.31,2.37-2.47,5.69-3.7,9.94-3.7s7.44.95,9.77,2.85c2.33,1.9,3.5,4.55,3.5,7.94,0,2.34-.57,4.44-1.72,6.33-1.15,1.88-2.53,3.49-4.15,4.83-1.62,1.34-3.75,2.91-6.38,4.72-2,1.36-3.56,2.48-4.69,3.36-1.13.89-2.12,1.87-2.97,2.97-.85,1.09-1.37,2.24-1.55,3.45h21.52v4.52h-27.57c0-2.9.59-5.43,1.78-7.6Z"/>
</svg>