<?xml version="1.0" encoding="UTF-8"?>
<svg id="Livello_1" data-name="Livello 1" xmlns="http://www.w3.org/2000/svg" viewBox="0 0 96 96">
  <defs>
    <style>
      .cls-1 {
        fill: #e2e2e2;
      }

      .cls-2 {
        fill: #3d3d3d;
      }
    </style>
  </defs>
  <g>
    <g>
      <path class="cls-1" d="M0,17.72v58.43h96V22.51c0-2.64-2.14-4.78-4.78-4.78H0Z"/>
      <path class="cls-1" d="M26.77,10.54H4.88C2.19,10.54,0,12.73,0,15.42v2.3h35.41s-6.14-6.15-6.14-6.15c-.66-.66-1.56-1.04-2.5-1.04Z"/>
    </g>
    <rect class="cls-1" y="22.62" width="96" height="62.37" rx="4.01" ry="4.01"/>
  </g>
  <path class="cls-2" d="M37.55,70.77c-2.47-2.45-3.7-5.86-3.7-10.23h4.92c0,3.09.81,5.5,2.43,7.23s3.86,2.6,6.72,2.6,5.17-.71,6.81-2.15,2.46-3.43,2.46-5.99-.83-4.36-2.49-5.73c-1.66-1.37-3.95-2.06-6.89-2.06h-2.77v-4.07h2.88c2.56,0,4.56-.62,5.99-1.86,1.43-1.24,2.15-2.98,2.15-5.2s-.72-3.82-2.15-5.03c-1.43-1.21-3.43-1.81-5.99-1.81-2.75,0-4.89.9-6.41,2.68-1.53,1.79-2.29,4.3-2.29,7.54h-4.75c0-4.41,1.19-7.84,3.56-10.31,2.37-2.47,5.67-3.7,9.89-3.7s7.18.94,9.46,2.82c2.28,1.88,3.42,4.48,3.42,7.8,0,2.11-.51,3.96-1.53,5.56-1.02,1.6-2.43,2.78-4.24,3.53,2.22.64,3.96,1.86,5.22,3.64,1.26,1.79,1.89,3.85,1.89,6.19,0,3.84-1.25,6.83-3.76,8.98-2.51,2.15-6,3.22-10.48,3.22s-7.9-1.22-10.37-3.67Z"/>
</svg>