<?xml version="1.0" encoding="UTF-8"?>
<svg id="Livello_1" data-name="Livello 1" xmlns="http://www.w3.org/2000/svg" viewBox="0 0 96 96">
  <defs>
    <style>
      .cls-1 {
        fill: #e2e2e2;
      }

      .cls-2 {
        fill: #3d3d3d;
      }
    </style>
  </defs>
  <g>
    <g>
      <path class="cls-1" d="M0,17.72v58.43h96V22.51c0-2.64-2.14-4.78-4.78-4.78H0Z"/>
      <path class="cls-1" d="M26.77,10.54H4.88C2.19,10.54,0,12.73,0,15.42v2.3h35.41s-6.14-6.15-6.14-6.15c-.66-.66-1.56-1.04-2.5-1.04Z"/>
    </g>
    <rect class="cls-1" y="22.62" width="96" height="62.37" rx="4.01" ry="4.01"/>
  </g>
  <path class="cls-2" d="M38.28,70.83c-2.43-2.41-3.64-5.76-3.64-10.06h4.97c0,3.01.77,5.37,2.32,7.06,1.54,1.69,3.71,2.54,6.5,2.54s4.97-.86,6.55-2.57,2.37-4.11,2.37-7.2-.78-5.23-2.34-6.86c-1.56-1.64-3.74-2.46-6.53-2.46-1.77,0-3.3.3-4.58.9s-2.58,1.54-3.9,2.82h-4.58l3.16-21.47h21.98v4.29h-18.08l-1.69,11.86c1.24-.9,2.51-1.55,3.81-1.95,1.3-.4,2.78-.59,4.43-.59,4.14,0,7.35,1.19,9.63,3.56,2.28,2.37,3.42,5.67,3.42,9.89s-1.21,7.72-3.62,10.17-5.76,3.67-10.05,3.67-7.71-1.21-10.14-3.62Z"/>
</svg>