<?xml version="1.0" encoding="utf-8"?>
<!-- Generator: Adobe Illustrator 28.1.0, SVG Export Plug-In . SVG Version: 6.00 Build 0)  -->
<svg version="1.1" id="Livello_1" xmlns="http://www.w3.org/2000/svg" xmlns:xlink="http://www.w3.org/1999/xlink" x="0px" y="0px"
	 viewBox="0 0 624.7 557.2" style="enable-background:new 0 0 624.7 557.2;" xml:space="preserve">
<style type="text/css">
	.st0{fill:#FFFFFF;stroke:#000000;stroke-width:13;stroke-miterlimit:10;}
	.st1{fill:none;stroke:#000000;stroke-width:2;stroke-miterlimit:10;}
	.st2{fill:none;}
	.st3{fill:none;stroke:#000000;stroke-width:0.5;stroke-miterlimit:10;}
	.st4{stroke:#000000;stroke-width:0.5;stroke-miterlimit:10;}
	.st5{fill:#D7D7D7;}
	.st6{fill:#3A3A3A;}
	.st7{fill:#B3B2B2;}
	.st8{fill:#929292;}
	.st9{fill:#FFFFFF;}
	.st10{fill:#515151;}
	.st11{fill:#DDDDDD;}
	.st12{fill:#A3A2A2;}
	.st13{fill:#D7D7D7;stroke:#000000;stroke-miterlimit:10;}
	.st14{fill:#3A3A3A;stroke:#000000;stroke-miterlimit:10;}
	.st15{fill:none;stroke:#000000;stroke-miterlimit:10;}
	.st16{fill:#B3B2B2;stroke:#000000;stroke-miterlimit:10;}
	.st17{fill:#929292;stroke:#000000;stroke-miterlimit:10;}
	.st18{fill:#FFFFFF;stroke:#000000;stroke-miterlimit:10;}
	.st19{fill:#515151;stroke:#000000;stroke-miterlimit:10;}
	.st20{stroke:#000000;stroke-miterlimit:10;}
	.st21{fill:#DDDDDD;stroke:#000000;stroke-miterlimit:10;}
	.st22{fill:#A3A2A2;stroke:#000000;stroke-miterlimit:10;}
	.st23{fill:none;stroke:#000000;stroke-width:0.25;stroke-miterlimit:10;}
	.st24{fill:none;stroke:#000000;stroke-width:3;stroke-miterlimit:10;}
	.st25{stroke:#000000;stroke-width:5;stroke-miterlimit:10;}
	.st26{fill:none;stroke:#000000;stroke-width:5;stroke-miterlimit:10;}
	.st27{fill:#D7D7D7;stroke:#000000;stroke-width:0.25;stroke-miterlimit:10;}
	.st28{fill:#646463;stroke:#000000;stroke-width:0.25;stroke-miterlimit:10;}
	.st29{fill:#B3B2B2;stroke:#000000;stroke-width:0.25;stroke-miterlimit:10;}
	.st30{fill:#FFFFFF;stroke:#000000;stroke-width:0.25;stroke-miterlimit:10;}
	.st31{fill:#DDDDDD;stroke:#000000;stroke-width:0.25;stroke-miterlimit:10;}
	.st32{fill:#929292;stroke:#000000;stroke-width:0.25;stroke-miterlimit:10;}
	.st33{fill:#757575;stroke:#000000;stroke-width:0.25;stroke-miterlimit:10;}
	.st34{fill:#515151;stroke:#000000;stroke-width:0.25;stroke-miterlimit:10;}
	.st35{stroke:#000000;stroke-width:0.25;stroke-miterlimit:10;}
	.st36{fill:#A3A2A2;stroke:#000000;stroke-width:0.25;stroke-miterlimit:10;}
	.st37{fill:#3A3A3A;stroke:#000000;stroke-width:0.25;stroke-miterlimit:10;}
	.st38{stroke:#FFFFFF;stroke-miterlimit:10;}
	.st39{fill:#D7D7D7;stroke:#000000;stroke-width:0.5;stroke-miterlimit:10;}
	.st40{fill:#3A3A3A;stroke:#000000;stroke-width:0.5;stroke-miterlimit:10;}
	.st41{fill:#B3B2B2;stroke:#000000;stroke-width:0.5;stroke-miterlimit:10;}
	.st42{fill:#A3A2A2;stroke:#000000;stroke-width:0.5;stroke-miterlimit:10;}
	.st43{fill:#929292;stroke:#000000;stroke-width:0.5;stroke-miterlimit:10;}
	.st44{fill:#FFFFFF;stroke:#000000;stroke-width:0.5;stroke-miterlimit:10;}
	.st45{fill:#515151;stroke:#000000;stroke-width:0.5;stroke-miterlimit:10;}
	.st46{fill:#DDDDDD;stroke:#000000;stroke-width:0.5;stroke-miterlimit:10;}
	.st47{fill:#9E9E9E;}
	.st48{stroke:#000000;stroke-width:2;stroke-miterlimit:10;}
	.st49{fill:none;stroke:#000000;stroke-width:26;stroke-miterlimit:10;}
	.st50{fill:#E6273A;}
	.st51{fill:none;stroke:#000000;stroke-width:106;stroke-miterlimit:10;}
	.st52{opacity:0.68;}
	.st53{opacity:0.54;fill:#FFFFFF;}
	.st54{fill:#CFCECE;}
</style>
<g>
	<path class="st9" d="M241,337.7c0,0-6.7-13.5-21,7.8s-15,50.9,9.4,65.8c0,0-27.6-10.3-49.6,17.5c-21.9,27.8-67.2,128.4-67.2,128.4
		s55-131.7,16.7-101.4c0,0,70.8-55.8,49.2-86.3c0,0,86.2-61.1,12.2-62.2c-74-1-125.8,30.4-125.8,30.4s52.3-39.1-64.9-53.9
		c0,0,29.7,2.5,21.8-31.1S0.6,166.4,0.6,166.4s33.3,124.2,57,83.9c0,0,3.4,75.4,59.4,53.4s46.1-40.1,46.1-40.1s19,59.8,106.8,13.8
		s24.1-48.1,24.1-48.1s116.5-35.8,123.1-77.9c0,0,3.8,23.2,61.3-24.5C535.8,79.2,624.7,1.3,624.7,1.3s-221.4,192.8-141,165.3
		c0,0-207.1,66.3-134.9,61.3c0,0-75.4,57.1-29.2,47s34.5-27.4,34.5-27.4s16.5,11.3,160.8-55.2c0,0-160.3,71.2-94.4,83.5
		C420.5,275.8,319.6,254.5,241,337.7z"/>
</g>
</svg>
